<?xml version="1.0" encoding="utf-8"?>
<!-- Generator: Adobe Illustrator 15.0.0, SVG Export Plug-In . SVG Version: 6.00 Build 0)  -->
<!DOCTYPE svg PUBLIC "-//W3C//DTD SVG 1.1//EN" "http://www.w3.org/Graphics/SVG/1.1/DTD/svg11.dtd">
<svg version="1.1" id="Layer_1" xmlns="http://www.w3.org/2000/svg" xmlns:xlink="http://www.w3.org/1999/xlink" x="0px" y="0px"
	 width="963.331px" height="253.612px" viewBox="13.58 133.196 963.331 253.612"
	 enable-background="new 13.58 133.196 963.331 253.612" xml:space="preserve">
<g>
	<path fill="#969696" d="M285.508,286.561l2.374-20.666l7.006-83.214l3.391-48.59c5.645,0.075,10.547,0.112,14.708,0.112
		c3.86,0,8.54-0.037,14.037-0.112l2.566,9.718c0.743,2.607,1.674,5.66,2.791,9.16s3.052,9.346,5.808,17.537l13.731,39.653
		l17.083,53.168l22.208-53.168l25.333-58.084c0.893-2.083,1.768-4.3,2.623-6.646c0.855-2.347,2.213-6.125,4.074-11.338
		c4.837,0.075,9.861,0.112,15.074,0.112c4.167,0,8.933-0.037,14.294-0.112l-1.406,53.281l-0.602,34.962
		c-0.073,3.278-0.11,6.554-0.11,9.83l0.11,25.579v14.41c0,1.639,0.074,6.44,0.225,14.408c-4.917-0.148-8.194-0.224-9.832-0.224
		c-2.31,0-5.698,0.074-10.166,0.224l0.671-14.186l1.678-80.424c0.224-9.01,0.335-19.026,0.335-30.048l-0.111-9.159l-48.995,117.619
		l-6.475,16.197c-4.852-0.149-8.247-0.225-10.187-0.225c-2.314,0-5.898,0.074-10.748,0.225l-13.259-42.111l-13.704-41.441
		l-13.592-39.989c-0.597-1.787-1.6-4.988-3.01-9.606l-1.363,13.069l-6.823,96.062c-0.151,3.201-0.284,6.403-0.397,9.604
		c-0.115,3.203-0.248,8.006-0.398,14.41l-9.36-0.225C293.605,286.336,290.411,286.41,285.508,286.561z"/>
	<path fill="#969696" d="M526.177,170.838c7.819,0,15.265,1.117,22.339,3.351s13.198,5.771,18.375,10.612
		c5.175,4.841,9.104,10.946,11.785,18.319c2.68,7.372,4.021,15.154,4.021,23.345c0,8.862-1.436,17.352-4.3,25.467
		c-2.868,8.118-6.89,15.008-12.063,20.666c-5.177,5.659-11.506,9.812-18.989,12.454c-7.482,2.644-15.51,3.966-24.07,3.966
		c-7.971,0-15.49-1.192-22.563-3.574c-7.075-2.385-13.2-6.104-18.375-11.17c-5.176-5.062-9.103-11.264-11.784-18.6
		c-2.681-7.334-4.021-15.023-4.021-23.066c0-12.136,2.458-23.066,7.372-32.783c4.915-9.719,12.137-16.979,21.67-21.782
		C505.102,173.24,515.302,170.838,526.177,170.838z M525.671,185.024c-7.585,0-14.557,1.899-20.914,5.696
		c-6.357,3.798-11.062,9.514-14.107,17.146c-3.05,7.634-4.573,15.956-4.573,24.965c0,7.894,1.263,14.987,3.792,21.278
		c2.526,6.293,6.69,11.377,12.491,15.248c5.8,3.873,12.789,5.809,20.97,5.809c5.576,0,10.854-0.949,15.839-2.85
		c4.98-1.898,9.331-5.043,13.049-9.438c3.718-4.394,6.468-9.772,8.254-16.141c1.784-6.366,2.678-13.049,2.678-20.05
		c0-6.552-0.894-12.695-2.678-18.43c-1.786-5.733-4.518-10.332-8.196-13.795c-3.683-3.462-7.847-5.9-12.494-7.316
		C535.133,185.732,530.429,185.024,525.671,185.024z"/>
	<path fill="#969696" d="M623.354,286.561l-3.802-11.283c-1.268-3.646-4.251-11.951-8.946-24.908l-28.065-76.961
		c4.543,0.075,8.116,0.112,10.724,0.112c2.83,0,6.182-0.037,10.058-0.112l2.348,7.82c0.671,2.233,1.827,5.808,3.468,10.723
		l26.293,77.854l35.418-85.338l4.232-11.059c4.405,0.075,7.915,0.112,10.528,0.112c2.612,0,6.123-0.037,10.53-0.112l-14.508,31.165
		l-29.127,65.008l-7.143,16.979c-4.617-0.149-8.231-0.225-10.837-0.225C631.846,286.336,628.119,286.41,623.354,286.561z"/>
	<path fill="#969696" d="M694.865,286.561l1.936-28.148l2.164-48.031l0.91-36.973l10.285,0.112l10.061-0.112
		c-0.835,11.617-1.595,23.774-2.279,36.47c-0.685,12.697-1.235,26.567-1.652,41.608c-0.419,15.041-0.626,26.734-0.626,35.074
		c-4.697-0.149-8.052-0.225-10.062-0.225C703.734,286.336,700.156,286.41,694.865,286.561z M700.003,149.057
		c0.224-6.998,0.336-12.287,0.336-15.861c4.095,0.15,7.706,0.224,10.834,0.224c3.945,0,7.521-0.073,10.724-0.224
		c-0.149,2.31-0.373,7.596-0.67,15.861c-4.021-0.073-7.482-0.111-10.39-0.111C707.934,148.945,704.321,148.983,700.003,149.057z"/>
	<path fill="#969696" d="M733.69,286.561c3.562-46.691,5.413-84.408,5.564-113.152l10.063,0.112c2.457,0,5.701-0.037,9.727-0.112
		l-1.476,22.34c1.859-3.127,3.351-5.529,4.468-7.205c1.117-1.675,2.607-3.443,4.47-5.306c1.863-1.86,4.061-3.592,6.593-5.194
		c2.532-1.6,5.512-2.94,8.938-4.021c3.426-1.078,6.908-1.879,10.447-2.401c3.536-0.521,7.057-0.782,10.558-0.782
		c6.406,0,12.588,0.782,18.547,2.346c5.958,1.563,10.857,4.115,14.693,7.651c3.837,3.538,6.402,7.503,7.709,11.896
		c1.304,4.395,1.956,9.123,1.956,14.186c0,0.969-0.04,2.831-0.112,5.586s-0.221,6.366-0.441,10.834l-2.216,46.803
		c-0.146,4.467-0.258,9.94-0.33,16.42c-3.355-0.149-6.525-0.225-9.509-0.225c-3.654,0-7.083,0.074-10.29,0.225
		c0.75-9.01,1.314-17.687,1.69-26.026l1.465-26.026c0.45-8.936,0.677-15.674,0.677-20.217c0-6.552-1.118-11.784-3.354-15.694
		c-2.238-3.909-5.815-6.924-10.735-9.048c-4.922-2.122-10.438-3.183-16.552-3.183c-8.648,0-16.066,2.049-22.254,6.144
		c-5.667,3.798-10.065,9.198-13.195,16.196c-2.163,4.989-3.692,12.362-4.585,22.117c-1.138,11.691-1.934,30.271-2.386,55.737
		c-4.154-0.148-7.38-0.224-9.678-0.224C741.847,286.336,738.362,286.41,733.69,286.561z"/>
	<path fill="#969696" d="M931.131,170.838c-10.426,0-20.013,1.267-28.763,3.798c-8.751,2.532-16.606,6.852-23.569,12.957
		c-6.963,6.107-12.25,13.702-15.859,22.787c-3.611,9.086-5.419,18.654-5.419,28.707c0,7.299,1.21,14.297,3.631,21
		c2.418,6.702,5.956,12.213,10.606,16.531c4.655,4.317,9.941,7.409,15.86,9.271c5.921,1.86,12.268,2.793,19.045,2.793
		c4.612,0,9.081-0.502,13.398-1.508c4.318-1.006,8.115-2.363,11.393-4.076c3.275-1.713,6.143-3.668,8.601-5.865
		c2.458-2.195,4.411-4.336,5.861-6.422c1.453-2.084,3.072-4.804,4.857-8.154c-0.367,15.789-0.886,26.322-1.547,31.611
		c-0.82,6.551-2.197,11.951-4.134,16.195c-1.562,3.202-3.538,5.811-5.92,7.82c-3.127,2.604-6.889,4.613-11.282,6.029
		c-5.289,1.711-11.021,2.569-17.199,2.569c-1.899,0-895.068-1.089-897.111-1.216c0.729,4.546,0.46,10.383,0,15.064
		c3.007,0.131,897.51,0,900.562,0c5.062,0,10.126-0.41,15.188-1.229c4.469-0.669,8.785-1.749,12.955-3.24
		c2.978-1.041,5.769-2.421,8.377-4.132c2.604-1.714,4.873-3.649,6.811-5.809c2.012-2.085,3.688-4.394,5.025-6.925
		c1.487-2.756,2.68-5.66,3.572-8.713c0.968-3.725,1.638-8.043,2.014-12.957l0.671-23.121c0.374-13.924,0.562-21.521,0.562-22.787
		l3.362-62.663l1.231-13.739C956.857,172.366,942.598,170.838,931.131,170.838z M951.981,227.693
		c-0.743,8.192-1.825,14.373-3.239,18.542c-1.86,5.884-4.689,11.097-8.483,15.638c-3.646,4.396-7.834,7.652-12.562,9.773
		c-4.728,2.123-10.104,3.184-16.131,3.184c-6.998,0-13.248-1.51-18.758-4.523c-5.509-3.016-9.583-7.5-12.225-13.459
		c-2.642-5.957-3.963-12.548-3.963-19.771c0-7.745,1.451-15.229,4.354-22.452c2.903-7.222,6.939-13.105,12.112-17.649
		c5.173-4.541,10.868-7.668,17.082-9.382c6.215-1.712,12.969-2.569,20.264-2.569c7.22,0,14.997,0.82,23.333,2.457
		C953.171,207.738,952.576,221.142,951.981,227.693z"/>
</g>
<g>
	<path fill="#585859" d="M288.508,286.561l2.374-20.666l7.006-83.214l3.391-48.59c5.645,0.075,10.547,0.112,14.708,0.112
		c3.86,0,8.54-0.037,14.037-0.112l2.566,9.718c0.743,2.607,1.674,5.66,2.791,9.16s3.052,9.346,5.808,17.537l13.731,39.653
		l17.083,53.168l22.208-53.168l25.333-58.084c0.893-2.083,1.768-4.3,2.623-6.646c0.855-2.347,2.213-6.125,4.074-11.338
		c4.837,0.075,9.861,0.112,15.074,0.112c4.167,0,8.933-0.037,14.294-0.112l-1.406,53.281l-0.602,34.962
		c-0.073,3.278-0.11,6.554-0.11,9.83l0.11,25.579v14.41c0,1.639,0.074,6.44,0.225,14.408c-4.917-0.148-8.194-0.224-9.832-0.224
		c-2.31,0-5.698,0.074-10.166,0.224l0.671-14.186l1.678-80.424c0.224-9.01,0.335-19.026,0.335-30.048l-0.111-9.159l-48.995,117.619
		l-6.475,16.197c-4.852-0.149-8.247-0.225-10.187-0.225c-2.314,0-5.898,0.074-10.748,0.225l-13.259-42.111l-13.704-41.441
		l-13.592-39.989c-0.597-1.787-1.6-4.988-3.01-9.606l-1.363,13.069l-6.823,96.062c-0.151,3.201-0.284,6.403-0.397,9.604
		c-0.114,3.203-0.248,8.006-0.397,14.41l-9.36-0.225C296.605,286.336,293.411,286.41,288.508,286.561z"/>
	<path fill="#585859" d="M529.177,170.838c7.819,0,15.265,1.117,22.339,3.351s13.198,5.771,18.375,10.612
		c5.175,4.841,9.104,10.946,11.785,18.319c2.68,7.372,4.021,15.154,4.021,23.345c0,8.862-1.436,17.352-4.3,25.467
		c-2.868,8.118-6.89,15.008-12.063,20.666c-5.177,5.659-11.506,9.812-18.989,12.454c-7.482,2.644-15.51,3.966-24.07,3.966
		c-7.971,0-15.49-1.192-22.563-3.574c-7.076-2.385-13.2-6.104-18.375-11.17c-5.176-5.062-9.103-11.264-11.784-18.6
		c-2.681-7.334-4.021-15.023-4.021-23.066c0-12.136,2.458-23.066,7.372-32.783c4.915-9.719,12.137-16.979,21.67-21.782
		C508.102,173.24,518.302,170.838,529.177,170.838z M528.671,185.024c-7.585,0-14.557,1.899-20.914,5.696
		c-6.357,3.798-11.062,9.514-14.107,17.146c-3.05,7.634-4.573,15.956-4.573,24.965c0,7.894,1.263,14.987,3.792,21.278
		c2.526,6.293,6.69,11.377,12.491,15.248c5.8,3.873,12.789,5.809,20.97,5.809c5.576,0,10.854-0.949,15.839-2.85
		c4.98-1.898,9.331-5.043,13.049-9.438c3.718-4.394,6.468-9.772,8.254-16.141c1.784-6.366,2.678-13.049,2.678-20.05
		c0-6.552-0.894-12.695-2.678-18.43c-1.786-5.733-4.518-10.332-8.196-13.795c-3.683-3.462-7.847-5.9-12.494-7.316
		C538.133,185.732,533.429,185.024,528.671,185.024z"/>
	<path fill="#585859" d="M626.354,286.561l-3.802-11.283c-1.268-3.646-4.251-11.951-8.946-24.908l-28.065-76.961
		c4.543,0.075,8.116,0.112,10.724,0.112c2.83,0,6.182-0.037,10.058-0.112l2.348,7.82c0.671,2.233,1.827,5.808,3.468,10.723
		l26.293,77.854l35.418-85.338l4.232-11.059c4.405,0.075,7.915,0.112,10.528,0.112c2.612,0,6.123-0.037,10.53-0.112l-14.508,31.165
		l-29.127,65.008l-7.143,16.979c-4.617-0.149-8.231-0.225-10.837-0.225C634.846,286.336,631.119,286.41,626.354,286.561z"/>
	<path fill="#585859" d="M697.865,286.561l1.936-28.148l2.164-48.031l0.91-36.973l10.285,0.112l10.061-0.112
		c-0.835,11.617-1.595,23.774-2.279,36.47c-0.685,12.697-1.235,26.567-1.652,41.608c-0.419,15.041-0.626,26.734-0.626,35.074
		c-4.697-0.149-8.052-0.225-10.062-0.225C706.734,286.336,703.156,286.41,697.865,286.561z M703.003,149.057
		c0.224-6.998,0.336-12.287,0.336-15.861c4.095,0.15,7.706,0.224,10.834,0.224c3.945,0,7.521-0.073,10.724-0.224
		c-0.149,2.31-0.373,7.596-0.67,15.861c-4.021-0.073-7.482-0.111-10.39-0.111C710.934,148.945,707.321,148.983,703.003,149.057z"/>
	<path fill="#585859" d="M736.69,286.561c3.562-46.691,5.413-84.408,5.564-113.152l10.063,0.112c2.457,0,5.701-0.037,9.727-0.112
		l-1.476,22.34c1.859-3.127,3.351-5.529,4.468-7.205c1.117-1.675,2.607-3.443,4.47-5.306c1.863-1.86,4.061-3.592,6.593-5.194
		c2.532-1.6,5.512-2.94,8.938-4.021c3.426-1.078,6.908-1.879,10.447-2.401c3.536-0.521,7.057-0.782,10.558-0.782
		c6.406,0,12.588,0.782,18.547,2.346c5.958,1.563,10.857,4.115,14.693,7.651c3.837,3.538,6.402,7.503,7.709,11.896
		c1.304,4.395,1.956,9.123,1.956,14.186c0,0.969-0.04,2.831-0.112,5.586s-0.221,6.366-0.441,10.834l-2.216,46.803
		c-0.146,4.467-0.258,9.94-0.33,16.42c-3.355-0.149-6.525-0.225-9.509-0.225c-3.654,0-7.083,0.074-10.29,0.225
		c0.75-9.01,1.314-17.687,1.69-26.026l1.465-26.026c0.45-8.936,0.677-15.674,0.677-20.217c0-6.552-1.118-11.784-3.354-15.694
		c-2.238-3.909-5.815-6.924-10.735-9.048c-4.922-2.122-10.438-3.183-16.552-3.183c-8.648,0-16.066,2.049-22.254,6.144
		c-5.667,3.798-10.065,9.198-13.195,16.196c-2.163,4.989-3.692,12.362-4.585,22.117c-1.138,11.691-1.934,30.271-2.386,55.737
		c-4.154-0.148-7.38-0.224-9.678-0.224C744.847,286.336,741.362,286.41,736.69,286.561z"/>
	<path fill="#585859" d="M934.131,170.838c-10.426,0-20.013,1.267-28.763,3.798c-8.751,2.532-16.606,6.852-23.569,12.957
		c-6.963,6.107-12.25,13.702-15.859,22.787c-3.611,9.086-5.419,18.654-5.419,28.707c0,7.299,1.21,14.297,3.631,21
		c2.418,6.702,5.956,12.213,10.606,16.531c4.655,4.317,9.941,7.409,15.86,9.271c5.921,1.86,12.268,2.793,19.045,2.793
		c4.612,0,9.081-0.502,13.398-1.508c4.318-1.006,8.115-2.363,11.393-4.076c3.275-1.713,6.143-3.668,8.601-5.865
		c2.458-2.195,4.411-4.336,5.861-6.422c1.453-2.084,3.072-4.804,4.857-8.154c-0.367,15.789-0.886,26.322-1.547,31.611
		c-0.82,6.551-2.197,11.951-4.134,16.195c-1.562,3.202-3.538,5.811-5.92,7.82c-3.127,2.604-6.889,4.613-11.282,6.029
		c-5.289,1.711-11.021,2.569-17.199,2.569c-1.899,0-895.488-1.075-897.53-1.202c0.729,4.547,0.46,10.369,0,15.053
		c3.007,0.131,897.93,0,900.981,0c5.062,0,10.126-0.41,15.188-1.229c4.469-0.669,8.785-1.749,12.955-3.239
		c2.978-1.043,5.769-2.422,8.377-4.133c2.604-1.714,4.873-3.648,6.811-5.809c2.012-2.085,3.688-4.395,5.025-6.924
		c1.487-2.758,2.68-5.66,3.572-8.713c0.968-3.726,1.638-8.045,2.014-12.959l0.671-23.121c0.374-13.924,0.562-21.52,0.562-22.787
		l3.362-62.662l1.231-13.739C959.857,172.366,945.598,170.838,934.131,170.838z M954.981,227.693
		c-0.743,8.192-1.825,14.373-3.239,18.542c-1.86,5.884-4.689,11.097-8.483,15.638c-3.646,4.396-7.834,7.652-12.562,9.773
		c-4.728,2.123-10.104,3.184-16.131,3.184c-6.998,0-13.248-1.51-18.758-4.523c-5.509-3.016-9.583-7.5-12.225-13.459
		c-2.642-5.957-3.963-12.548-3.963-19.771c0-7.745,1.451-15.229,4.354-22.452c2.903-7.222,6.939-13.105,12.112-17.649
		c5.173-4.541,10.868-7.668,17.082-9.382c6.215-1.712,12.969-2.569,20.264-2.569c7.22,0,14.997,0.82,23.333,2.457
		C956.171,207.738,955.576,221.142,954.981,227.693z"/>
</g>
<g id="Layer_2">
</g>
<g>
	<g>
		<path fill="#3656A1" d="M16.972,283.284c2.244-12.744,4.234-25.191,5.97-37.347c7.649,3.349,13.924,5.625,18.825,6.834
			c4.9,1.205,9.576,1.85,14.027,1.927c4.969,0.087,9.624-0.729,13.965-2.446c3.289-1.361,6.042-3.146,8.26-5.35
			c3.014-3.087,5.406-6.707,7.177-10.863c3.127-7.495,7.203-20.562,12.222-39.2c5.019-18.638,9.087-34.769,12.203-48.394
			l2.988-13.067c11.825,0.357,19.701,0.569,23.63,0.638c4.891,0.086,13.282,0.159,25.177,0.217l-14.649,49.305
			c-4.158,14.579-8.306,30.093-12.44,46.54c-3.192,12.654-5.806,21.314-7.842,25.988c-1.861,4.229-3.938,7.781-6.232,10.654
			c-2.113,2.73-4.528,5.155-7.248,7.274c-3.339,2.56-7.158,4.771-11.458,6.64c-5.804,2.59-11.787,4.504-17.95,5.739
			c-6.794,1.377-13.861,2.001-21.2,1.872C48.826,290.009,33.685,287.688,16.972,283.284z"/>
		<path fill="#3656A1" d="M129.447,286.605c5.299-16.352,9.283-29.217,11.947-38.587c3.668-12.792,8.408-30.352,14.219-52.676
			c5.81-22.324,9.763-38.065,11.857-47.223c0.748-3.275,1.766-7.892,3.055-13.85c9.815,0.396,17.617,0.645,23.402,0.746
			c8.085,0.142,17.544,0.139,28.38-0.007c10.833-0.147,20.107-0.152,27.823-0.018c9.274,0.163,15.815,0.54,19.629,1.129
			c5.039,0.761,9.311,2.033,12.814,3.813c3.502,1.782,6.263,3.96,8.282,6.537c2.213,3.029,3.657,6.643,4.336,10.84
			c0.764,4.799,0.526,9.916-0.716,15.35c-0.97,4.244-2.438,8.293-4.396,12.145c-1.962,3.854-4.27,7.27-6.924,10.251
			c-2.656,2.981-5.437,5.455-8.345,7.422c-2.907,1.967-5.657,3.489-8.249,4.565c-2.593,1.076-5.982,2.137-10.168,3.186
			c3.778,0.738,6.755,1.559,8.935,2.455c2.177,0.899,4.403,2.32,6.677,4.266c2.272,1.946,4.144,4.428,5.616,7.443
			c1.469,3.017,2.321,6.376,2.555,10.081c0.231,3.705-0.119,7.605-1.055,11.699c-1.294,5.659-3.44,10.967-6.433,15.922
			c-2.996,4.957-6.571,9.193-10.726,12.709c-3.518,3.002-7.786,5.545-12.803,7.623c-5.019,2.081-9.997,3.489-14.93,4.223
			c-3.995,0.531-11.126,0.854-21.393,0.973c-10.268,0.119-21.115,0.078-32.537-0.121l-29.24-0.625L129.447,286.605z
			 M183.465,256.829l21.385,0.374c5.644,0.1,9.878-0.163,12.705-0.786c3.452-0.763,6.187-1.798,8.201-3.108
			c2.013-1.311,3.787-3.109,5.318-5.4c1.529-2.29,2.618-4.85,3.266-7.679c0.562-2.458,0.647-4.624,0.257-6.5
			c-0.392-1.875-1.258-3.459-2.601-4.755c-1.344-1.293-3.138-2.241-5.383-2.841c-2.248-0.601-5.893-0.945-10.938-1.033
			l-23.481-0.411L183.465,256.829z M200.29,194.443l15.819,0.277c5.199,0.09,8.924,0.027,11.175-0.197
			c2.25-0.221,4.493-0.65,6.726-1.284c2.232-0.633,4.289-1.718,6.17-3.256c1.88-1.537,3.356-3.266,4.43-5.192
			c1.074-1.925,1.833-3.854,2.275-5.792c0.63-2.753,0.542-5.222-0.261-7.405c-0.806-2.181-2.535-3.818-5.189-4.912
			c-2.655-1.093-6.95-1.692-12.884-1.795l-20.029-0.351L200.29,194.443z"/>
	</g>
</g>
<g>
	<g>
		<path fill="#4D6BB8" d="M19.598,283.441c2.274-12.715,4.292-25.133,6.05-37.259c7.751,3.341,14.11,5.613,19.076,6.819
			c4.966,1.203,9.704,1.845,14.214,1.922c5.036,0.086,9.752-0.728,14.152-2.44c3.333-1.358,6.124-3.139,8.371-5.337
			c3.054-3.079,5.478-6.69,7.272-10.837c3.17-7.477,7.299-20.514,12.385-39.108c5.086-18.595,9.208-34.688,12.365-48.281
			l3.027-13.036c11.983,0.356,19.964,0.567,23.946,0.636c4.956,0.086,13.459,0.159,25.513,0.216l-14.844,49.189
			c-4.214,14.545-8.417,30.023-12.606,46.431c-3.234,12.625-5.883,21.266-7.946,25.929c-1.886,4.219-3.991,7.763-6.316,10.63
			c-2.141,2.725-4.588,5.143-7.344,7.256c-3.385,2.555-7.254,4.762-11.611,6.625c-5.881,2.581-11.944,4.491-18.189,5.725
			c-6.885,1.375-14.046,1.998-21.483,1.869C51.877,290.15,36.534,287.834,19.598,283.441z"/>
		<path fill="#4D6BB8" d="M133.574,286.754c5.369-16.311,9.406-29.146,12.106-38.496c3.717-12.762,8.521-30.28,14.409-52.552
			c5.887-22.272,9.894-37.977,12.015-47.113c0.759-3.267,1.79-7.873,3.096-13.817c9.947,0.395,17.852,0.643,23.715,0.745
			c8.193,0.141,17.779,0.138,28.758-0.007c10.979-0.146,20.375-0.152,28.195-0.018c9.397,0.162,16.026,0.538,19.891,1.126
			c5.105,0.759,9.435,2.028,12.985,3.804c3.548,1.778,6.347,3.952,8.393,6.521c2.242,3.022,3.706,6.627,4.394,10.814
			c0.774,4.788,0.534,9.893-0.726,15.314c-0.983,4.234-2.47,8.273-4.455,12.116c-1.988,3.844-4.327,7.252-7.017,10.227
			c-2.69,2.974-5.509,5.442-8.456,7.405c-2.946,1.962-5.732,3.481-8.359,4.555c-2.627,1.073-6.062,2.132-10.304,3.178
			c3.829,0.736,6.845,1.554,9.054,2.448c2.206,0.897,4.461,2.315,6.766,4.256c2.303,1.941,4.199,4.417,5.69,7.426
			c1.489,3.01,2.353,6.361,2.589,10.057c0.235,3.695-0.121,7.586-1.069,11.67c-1.312,5.647-3.486,10.94-6.519,15.884
			c-3.036,4.946-6.659,9.172-10.869,12.68c-3.565,2.995-7.891,5.532-12.975,7.605c-5.086,2.076-10.13,3.48-15.128,4.212
			c-4.048,0.531-11.274,0.853-21.679,0.972c-10.404,0.118-21.396,0.077-32.971-0.121l-29.629-0.623L133.574,286.754z
			 M188.313,257.049l21.67,0.372c5.719,0.101,10.01-0.162,12.875-0.784c3.498-0.759,6.269-1.793,8.31-3.101
			c2.04-1.31,3.837-3.102,5.389-5.388c1.549-2.285,2.653-4.838,3.31-7.662c0.569-2.452,0.655-4.612,0.26-6.484
			c-0.397-1.87-1.275-3.451-2.635-4.744c-1.362-1.29-3.18-2.236-5.456-2.834c-2.277-0.599-5.971-0.942-11.083-1.03l-23.794-0.41
			L188.313,257.049z M205.362,194.809l16.03,0.277c5.269,0.09,9.044,0.026,11.325-0.197c2.28-0.221,4.553-0.648,6.816-1.28
			c2.262-0.632,4.346-1.715,6.252-3.249c1.906-1.533,3.401-3.258,4.489-5.18c1.089-1.92,1.857-3.845,2.306-5.778
			c0.639-2.747,0.549-5.21-0.264-7.388c-0.816-2.176-2.568-3.81-5.258-4.901c-2.69-1.09-7.042-1.688-13.056-1.792l-20.296-0.35
			L205.362,194.809z"/>
	</g>
</g>
<g>
	<path fill="#585858" d="M15.71,361.843c0.444-0.754,0.924-1.549,1.442-2.385c0.518-0.836,0.939-1.527,1.265-2.075l1.708-2.974
		l1.087,0.022c0.251,0,0.606-0.007,1.065-0.022c-1.139,3.24-1.96,5.718-2.463,7.434c-0.843-0.029-1.495-0.044-1.953-0.044
		C17.3,361.799,16.583,361.813,15.71,361.843z M22.544,361.843c0.444-0.769,0.924-1.564,1.442-2.385
		c0.518-0.821,0.924-1.49,1.221-2.009l1.753-3.04l1.087,0.022c0.251,0,0.606-0.007,1.065-0.022
		c-1.095,3.106-1.916,5.585-2.463,7.434c-0.843-0.029-1.495-0.044-1.953-0.044C24.149,361.799,23.432,361.813,22.544,361.843z"/>
	<path fill="#585858" d="M32.175,384.698l0.472-4.105l1.392-16.531l0.674-9.652c1.121,0.016,2.095,0.022,2.921,0.022
		c0.767,0,1.697-0.007,2.789-0.022l0.51,1.931c0.147,0.519,0.333,1.125,0.554,1.819c0.222,0.696,0.606,1.857,1.154,3.484
		l2.728,7.877l3.394,10.562l4.412-10.562l5.033-11.538c0.177-0.414,0.351-0.854,0.521-1.32c0.17-0.467,0.439-1.217,0.809-2.253
		c0.961,0.016,1.959,0.022,2.995,0.022c0.828,0,1.774-0.007,2.84-0.022l-0.28,10.585l-0.119,6.945
		c-0.015,0.651-0.022,1.302-0.022,1.952l0.022,5.082v2.862c0,0.325,0.015,1.279,0.044,2.862c-0.977-0.029-1.628-0.044-1.953-0.044
		c-0.458,0-1.132,0.015-2.02,0.044l0.133-2.818l0.333-15.977c0.044-1.789,0.066-3.779,0.066-5.969l-0.022-1.819l-9.733,23.365
		l-1.286,3.218c-0.964-0.029-1.638-0.044-2.023-0.044c-0.46,0-1.172,0.015-2.135,0.044l-2.634-8.365l-2.723-8.232l-2.7-7.944
		c-0.118-0.354-0.317-0.99-0.598-1.908l-0.271,2.597l-1.355,19.083c-0.03,0.636-0.057,1.272-0.079,1.908
		c-0.023,0.636-0.049,1.59-0.079,2.862l-1.859-0.044C33.783,384.654,33.149,384.669,32.175,384.698z"/>
	<path fill="#585858" d="M82.257,361.71c1.553,0,3.032,0.222,4.438,0.666c1.405,0.443,2.622,1.146,3.65,2.107
		c1.028,0.962,1.808,2.175,2.341,3.64c0.533,1.464,0.799,3.01,0.799,4.638c0,1.76-0.285,3.446-0.854,5.059s-1.368,2.981-2.396,4.105
		s-2.285,1.949-3.772,2.474c-1.487,0.525-3.081,0.788-4.782,0.788c-1.583,0-3.077-0.237-4.482-0.71
		c-1.406-0.474-2.622-1.213-3.65-2.219s-1.808-2.237-2.341-3.695c-0.533-1.457-0.799-2.984-0.799-4.582
		c0-2.411,0.488-4.582,1.464-6.513c0.977-1.931,2.411-3.372,4.305-4.327C78.07,362.187,80.097,361.71,82.257,361.71z
		 M82.157,364.528c-1.507,0-2.892,0.377-4.155,1.131c-1.263,0.755-2.197,1.891-2.803,3.406c-0.606,1.517-0.908,3.17-0.908,4.96
		c0,1.567,0.251,2.977,0.753,4.227c0.502,1.25,1.329,2.26,2.481,3.029c1.152,0.77,2.541,1.153,4.166,1.153
		c1.108,0,2.157-0.188,3.146-0.565c0.989-0.377,1.854-1.002,2.592-1.875s1.285-1.941,1.64-3.206
		c0.354-1.266,0.532-2.593,0.532-3.983c0-1.302-0.177-2.522-0.532-3.661c-0.355-1.139-0.897-2.053-1.628-2.74
		c-0.731-0.688-1.559-1.173-2.482-1.454C84.036,364.669,83.102,364.528,82.157,364.528z"/>
	<path fill="#585858" d="M103.833,384.698l-0.755-2.241c-0.251-0.725-0.844-2.374-1.777-4.948l-5.576-15.288
		c0.902,0.015,1.613,0.021,2.13,0.021c0.562,0,1.228-0.007,1.998-0.021l0.467,1.553c0.133,0.443,0.363,1.154,0.689,2.13
		l5.223,15.467l7.036-16.953l0.841-2.196c0.875,0.015,1.572,0.021,2.092,0.021c0.519,0,1.216-0.007,2.092-0.021l-2.882,6.19
		l-5.787,12.914l-1.418,3.373c-0.917-0.029-1.635-0.044-2.153-0.044C105.52,384.654,104.78,384.669,103.833,384.698z"/>
	<path fill="#585858" d="M138.596,381.17c-0.177,0.813-0.355,1.85-0.532,3.106c-1.42,0.355-2.652,0.596-3.695,0.722
		c-1.043,0.125-2.082,0.188-3.118,0.188c-1.849,0-3.51-0.222-4.981-0.666c-1.472-0.443-2.733-1.217-3.783-2.318
		c-1.051-1.103-1.805-2.363-2.263-3.783c-0.459-1.421-0.688-2.922-0.688-4.505c0-2.204,0.421-4.249,1.265-6.136
		c0.843-1.886,2.111-3.368,3.806-4.448c1.694-1.08,3.842-1.62,6.446-1.62c1.346,0,2.633,0.196,3.861,0.588
		c1.228,0.393,2.248,0.987,3.062,1.786c0.813,0.799,1.442,1.786,1.886,2.963c0.444,1.176,0.666,2.459,0.666,3.85
		c0,0.532-0.044,1.051-0.133,1.553h-16.931c-0.059,0.814-0.088,1.436-0.088,1.864c0,1.554,0.325,2.984,0.976,4.294
		c0.651,1.309,1.612,2.3,2.885,2.974c1.272,0.673,2.737,1.009,4.394,1.009C133.537,382.59,135.859,382.117,138.596,381.17z
		 M123.64,370.607h13.225c-0.015-0.932-0.074-1.656-0.178-2.174s-0.296-1.055-0.577-1.609c-0.281-0.555-0.663-1.035-1.143-1.442
		c-0.481-0.406-1.058-0.717-1.73-0.932c-0.673-0.214-1.402-0.321-2.186-0.321c-0.843,0-1.646,0.118-2.407,0.354
		c-0.762,0.237-1.435,0.562-2.02,0.977s-1.08,0.898-1.486,1.453c-0.407,0.555-0.71,1.092-0.91,1.609S123.832,369.735,123.64,370.607
		z"/>
	<path fill="#585858" d="M144.254,384.698c0.532-8.535,0.798-15.348,0.798-20.437l-0.022-2.041c0.754,0.015,1.376,0.021,1.864,0.021
		c0.562,0,1.191-0.007,1.887-0.021l-0.177,3.683c0.547-0.917,1.032-1.608,1.454-2.074s0.898-0.851,1.431-1.154
		c0.533-0.303,1.135-0.539,1.809-0.71c0.673-0.17,1.372-0.255,2.097-0.255c0.621,0,1.235,0.074,1.842,0.222
		c0.015,0.977,0.066,2.071,0.155,3.284c-0.917-0.251-1.738-0.377-2.462-0.377c-0.873,0-1.657,0.144-2.352,0.433
		c-0.695,0.288-1.32,0.725-1.875,1.309c-0.555,0.585-1.009,1.284-1.364,2.098c-0.296,0.65-0.521,1.494-0.676,2.529
		s-0.277,2.922-0.366,5.658c-0.059,1.997-0.088,4.112-0.088,6.347v1.486c-0.8-0.029-1.443-0.044-1.932-0.044
		C145.831,384.654,145.157,384.669,144.254,384.698z"/>
	<path fill="#585858" d="M159.166,384.276l-0.133-1.63c0-0.18-0.06-0.745-0.178-1.698c2.278,0.991,4.379,1.486,6.302,1.486
		c1.006,0,1.856-0.132,2.552-0.397s1.217-0.66,1.564-1.184s0.521-1.064,0.521-1.625c0-0.31-0.048-0.619-0.144-0.929
		c-0.097-0.31-0.241-0.608-0.433-0.896c-0.193-0.288-0.478-0.604-0.854-0.951c-0.377-0.347-1.162-1-2.352-1.962
		c-1.191-0.962-2.094-1.712-2.707-2.252c-0.614-0.54-1.14-1.095-1.576-1.665c-0.437-0.569-0.758-1.143-0.965-1.72
		c-0.207-0.576-0.311-1.161-0.311-1.753c0-0.946,0.3-1.863,0.899-2.751s1.464-1.55,2.596-1.986c1.131-0.436,2.459-0.654,3.983-0.654
		c1.701,0,3.572,0.199,5.614,0.599c0.059,1.154,0.133,2.212,0.222,3.174c-1.657-0.681-3.292-1.021-4.904-1.021
		c-0.873,0-1.683,0.115-2.43,0.345s-1.294,0.573-1.642,1.031c-0.348,0.459-0.521,0.962-0.521,1.509c0,0.355,0.059,0.696,0.178,1.021
		c0.118,0.325,0.329,0.677,0.632,1.054s0.669,0.751,1.099,1.12c0.429,0.37,1.283,1.065,2.562,2.086
		c1.28,1.021,2.156,1.775,2.63,2.264c0.473,0.488,0.88,0.991,1.22,1.509s0.588,1.032,0.743,1.542
		c0.156,0.511,0.233,1.032,0.233,1.564c0,1.036-0.308,1.997-0.921,2.885c-0.614,0.888-1.528,1.575-2.741,2.063
		s-2.574,0.732-4.083,0.732c-0.636,0-1.384-0.041-2.241-0.122c-0.858-0.082-1.587-0.178-2.186-0.288
		C160.796,384.665,160.053,384.499,159.166,384.276z"/>
	<path fill="#585858" d="M200.793,361.71c1.553,0,3.032,0.222,4.438,0.666c1.405,0.443,2.622,1.146,3.65,2.107
		c1.028,0.962,1.808,2.175,2.341,3.64c0.533,1.464,0.799,3.01,0.799,4.638c0,1.76-0.285,3.446-0.854,5.059s-1.368,2.981-2.396,4.105
		s-2.285,1.949-3.772,2.474c-1.487,0.525-3.081,0.788-4.782,0.788c-1.583,0-3.077-0.237-4.482-0.71
		c-1.406-0.474-2.622-1.213-3.65-2.219s-1.808-2.237-2.341-3.695c-0.533-1.457-0.799-2.984-0.799-4.582
		c0-2.411,0.488-4.582,1.464-6.513c0.977-1.931,2.411-3.372,4.305-4.327C196.607,362.187,198.633,361.71,200.793,361.71z
		 M200.693,364.528c-1.507,0-2.892,0.377-4.155,1.131c-1.263,0.755-2.197,1.891-2.803,3.406c-0.606,1.517-0.908,3.17-0.908,4.96
		c0,1.567,0.251,2.977,0.753,4.227c0.502,1.25,1.329,2.26,2.481,3.029c1.152,0.77,2.541,1.153,4.166,1.153
		c1.108,0,2.157-0.188,3.146-0.565c0.989-0.377,1.854-1.002,2.592-1.875s1.285-1.941,1.64-3.206
		c0.354-1.266,0.532-2.593,0.532-3.983c0-1.302-0.177-2.522-0.532-3.661c-0.355-1.139-0.897-2.053-1.628-2.74
		c-0.731-0.688-1.559-1.173-2.482-1.454C202.573,364.669,201.639,364.528,200.693,364.528z"/>
	<path fill="#585858" d="M216.969,384.698l0.243-4.078l0.596-15.604h-2.769c0.074-0.73,0.133-1.647,0.177-2.751h2.861
		c0.03-1.376,0.063-2.43,0.1-3.162c0.037-0.732,0.133-1.391,0.289-1.975c0.155-0.584,0.384-1.08,0.688-1.487
		c0.303-0.406,0.725-0.779,1.265-1.12c0.54-0.34,1.168-0.588,1.886-0.743c0.717-0.155,1.542-0.233,2.475-0.233
		c1.228,0,2.655,0.186,4.283,0.555c0.03,0.888,0.104,1.827,0.222,2.818c-1.406-0.488-2.685-0.732-3.839-0.732
		c-0.562,0-1.08,0.074-1.553,0.222c-0.474,0.148-0.854,0.345-1.143,0.588c-0.288,0.244-0.525,0.566-0.71,0.966
		s-0.311,0.873-0.377,1.42c-0.067,0.548-0.1,1.191-0.1,1.931l-0.022,0.954h6.168c-0.074,0.642-0.141,1.559-0.2,2.751h-5.95
		l-0.394,11.326l-0.197,8.356c-0.918-0.029-1.592-0.044-2.021-0.044C218.532,384.654,217.873,384.669,216.969,384.698z"/>
	<path fill="#585858" d="M241.733,384.698l0.243-4.078l0.596-15.604h-2.769c0.074-0.73,0.133-1.647,0.177-2.751h2.861
		c0.03-1.376,0.063-2.43,0.1-3.162c0.037-0.732,0.133-1.391,0.289-1.975c0.155-0.584,0.384-1.08,0.688-1.487
		c0.303-0.406,0.725-0.779,1.265-1.12c0.54-0.34,1.168-0.588,1.886-0.743c0.717-0.155,1.542-0.233,2.475-0.233
		c1.228,0,2.655,0.186,4.283,0.555c0.03,0.888,0.104,1.827,0.222,2.818c-1.406-0.488-2.685-0.732-3.839-0.732
		c-0.562,0-1.08,0.074-1.553,0.222c-0.474,0.148-0.854,0.345-1.143,0.588c-0.288,0.244-0.525,0.566-0.71,0.966
		s-0.311,0.873-0.377,1.42c-0.067,0.548-0.1,1.191-0.1,1.931l-0.022,0.954h6.168c-0.074,0.642-0.141,1.559-0.2,2.751h-5.95
		l-0.394,11.326l-0.197,8.356c-0.918-0.029-1.592-0.044-2.021-0.044C243.295,384.654,242.637,384.669,241.733,384.698z"/>
	<path fill="#585858" d="M254.647,384.698l0.385-5.592l0.43-9.541l0.181-7.345l2.043,0.021l1.999-0.021
		c-0.166,2.308-0.317,4.723-0.453,7.244c-0.136,2.522-0.246,5.278-0.329,8.266c-0.083,2.988-0.124,5.312-0.124,6.968
		c-0.933-0.029-1.6-0.044-2-0.044C256.409,384.654,255.698,384.669,254.647,384.698z M255.668,357.383
		c0.044-1.391,0.066-2.44,0.066-3.15c0.813,0.029,1.531,0.044,2.152,0.044c0.784,0,1.494-0.015,2.13-0.044
		c-0.03,0.458-0.074,1.509-0.133,3.15c-0.799-0.015-1.487-0.022-2.063-0.022C257.243,357.36,256.526,357.368,255.668,357.383z"/>
	<path fill="#585858" d="M264.633,384.698c0.707-9.275,1.075-16.768,1.105-22.478l1.999,0.021c0.489,0,1.133-0.007,1.933-0.021
		l-0.293,4.438c0.37-0.621,0.666-1.099,0.887-1.432c0.222-0.332,0.518-0.684,0.888-1.054c0.37-0.369,0.807-0.714,1.31-1.032
		c0.503-0.317,1.095-0.584,1.776-0.799c0.681-0.214,1.372-0.373,2.075-0.477c0.703-0.104,1.402-0.155,2.097-0.155
		c1.272,0,2.501,0.155,3.685,0.466s2.157,0.817,2.919,1.521c0.762,0.702,1.272,1.49,1.531,2.362
		c0.259,0.873,0.389,1.812,0.389,2.818c0,0.192-0.008,0.562-0.022,1.109c-0.015,0.548-0.044,1.265-0.088,2.152l-0.44,9.298
		c-0.03,0.888-0.051,1.975-0.066,3.262c-0.667-0.029-1.296-0.044-1.889-0.044c-0.726,0-1.407,0.015-2.044,0.044
		c0.149-1.79,0.261-3.514,0.336-5.17l0.291-5.171c0.089-1.774,0.134-3.113,0.134-4.016c0-1.302-0.222-2.341-0.667-3.118
		c-0.444-0.776-1.155-1.375-2.132-1.797c-0.978-0.422-2.074-0.633-3.288-0.633c-1.718,0-3.192,0.407-4.421,1.221
		c-1.125,0.755-2,1.827-2.622,3.218c-0.429,0.991-0.733,2.455-0.911,4.394c-0.226,2.322-0.384,6.013-0.474,11.072
		c-0.825-0.029-1.466-0.044-1.922-0.044C266.253,384.654,265.561,384.669,264.633,384.698z"/>
	<path fill="#585858" d="M310.565,381.17c-0.177,0.813-0.355,1.85-0.532,3.106c-1.42,0.355-2.652,0.596-3.695,0.722
		c-1.043,0.125-2.082,0.188-3.118,0.188c-1.849,0-3.51-0.222-4.981-0.666c-1.472-0.443-2.733-1.217-3.783-2.318
		c-1.051-1.103-1.805-2.363-2.263-3.783c-0.459-1.421-0.688-2.922-0.688-4.505c0-2.204,0.421-4.249,1.265-6.136
		c0.843-1.886,2.111-3.368,3.806-4.448c1.694-1.08,3.842-1.62,6.446-1.62c1.346,0,2.633,0.196,3.861,0.588
		c1.228,0.393,2.248,0.987,3.062,1.786c0.813,0.799,1.442,1.786,1.886,2.963c0.444,1.176,0.666,2.459,0.666,3.85
		c0,0.532-0.044,1.051-0.133,1.553h-16.931c-0.059,0.814-0.088,1.436-0.088,1.864c0,1.554,0.325,2.984,0.976,4.294
		c0.651,1.309,1.612,2.3,2.885,2.974c1.272,0.673,2.737,1.009,4.394,1.009C305.506,382.59,307.828,382.117,310.565,381.17z
		 M295.609,370.607h13.225c-0.015-0.932-0.074-1.656-0.178-2.174s-0.296-1.055-0.577-1.609c-0.281-0.555-0.663-1.035-1.143-1.442
		c-0.481-0.406-1.058-0.717-1.73-0.932c-0.673-0.214-1.402-0.321-2.186-0.321c-0.843,0-1.646,0.118-2.407,0.354
		c-0.762,0.237-1.435,0.562-2.02,0.977s-1.08,0.898-1.486,1.453c-0.407,0.555-0.71,1.092-0.91,1.609
		S295.801,369.735,295.609,370.607z"/>
	<path fill="#585858" d="M327.762,384.698l0.553-9.652l0.509-13.158l0.133-7.479l2.021,0.022c0.503,0,1.162-0.007,1.977-0.022
		l-0.487,7.711l-0.177,4.6c0.355-0.635,0.662-1.142,0.921-1.519c0.258-0.376,0.591-0.753,0.998-1.13s0.832-0.698,1.276-0.965
		c0.444-0.266,0.939-0.499,1.486-0.698c0.547-0.199,1.206-0.365,1.975-0.499c0.769-0.133,1.575-0.199,2.418-0.199
		c1.257,0,2.459,0.141,3.605,0.421c1.146,0.281,2.13,0.747,2.951,1.396c0.821,0.65,1.383,1.427,1.687,2.328s0.455,1.817,0.455,2.749
		c0,0.369-0.007,0.856-0.022,1.463c-0.044,0.916-0.103,1.987-0.175,3.214l-0.373,8.158c-0.044,0.887-0.073,1.974-0.088,3.259
		c-0.86-0.029-1.519-0.044-1.979-0.044c-0.504,0-1.208,0.015-2.112,0.044c0.164-1.596,0.353-4.108,0.569-7.537
		s0.324-5.809,0.324-7.138c0-1.182-0.214-2.16-0.644-2.937c-0.429-0.774-1.14-1.369-2.131-1.783c-0.991-0.413-2.093-0.62-3.307-0.62
		c-1.11,0-2.146,0.17-3.107,0.51c-0.873,0.311-1.617,0.746-2.231,1.308c-0.614,0.562-1.106,1.248-1.476,2.061
		c-0.4,0.872-0.681,1.751-0.843,2.638c-0.252,1.403-0.429,3.354-0.533,5.851c-0.059,1.493-0.14,4.043-0.244,7.648
		c-0.829-0.029-1.451-0.044-1.865-0.044C329.442,384.654,328.753,384.669,327.762,384.698z"/>
	<path fill="#585858" d="M366.46,361.71c1.553,0,3.032,0.222,4.438,0.666c1.405,0.443,2.622,1.146,3.65,2.107
		c1.028,0.962,1.808,2.175,2.341,3.64c0.533,1.464,0.799,3.01,0.799,4.638c0,1.76-0.285,3.446-0.854,5.059s-1.368,2.981-2.396,4.105
		s-2.285,1.949-3.772,2.474c-1.487,0.525-3.081,0.788-4.782,0.788c-1.583,0-3.077-0.237-4.482-0.71
		c-1.406-0.474-2.622-1.213-3.65-2.219s-1.808-2.237-2.341-3.695c-0.533-1.457-0.799-2.984-0.799-4.582
		c0-2.411,0.488-4.582,1.464-6.513c0.977-1.931,2.411-3.372,4.305-4.327C362.274,362.187,364.3,361.71,366.46,361.71z
		 M366.36,364.528c-1.507,0-2.892,0.377-4.155,1.131c-1.263,0.755-2.197,1.891-2.803,3.406c-0.606,1.517-0.908,3.17-0.908,4.96
		c0,1.567,0.251,2.977,0.753,4.227c0.502,1.25,1.329,2.26,2.481,3.029c1.152,0.77,2.541,1.153,4.166,1.153
		c1.108,0,2.157-0.188,3.146-0.565c0.989-0.377,1.854-1.002,2.592-1.875s1.285-1.941,1.64-3.206
		c0.354-1.266,0.532-2.593,0.532-3.983c0-1.302-0.177-2.522-0.532-3.661c-0.355-1.139-0.897-2.053-1.628-2.74
		c-0.731-0.688-1.559-1.173-2.482-1.454C368.24,364.669,367.306,364.528,366.36,364.528z"/>
	<path fill="#585858" d="M381.993,384.698l0.244-3.218c0.044-0.68,0.103-1.753,0.177-3.217l0.531-13.514
		c0.015-1.109,0.022-1.953,0.022-2.529c0.695,0.015,1.332,0.021,1.909,0.021c0.622,0,1.236-0.007,1.843-0.021l-0.199,4.127
		c0.503-0.828,0.958-1.487,1.365-1.975c0.407-0.488,0.943-0.939,1.608-1.354c0.666-0.413,1.423-0.735,2.274-0.965
		c0.851-0.229,1.734-0.344,2.651-0.344c0.636,0,1.265,0.074,1.886,0.222c0.621,0.148,1.194,0.355,1.719,0.621
		c0.525,0.267,0.976,0.57,1.354,0.91c0.377,0.341,0.68,0.71,0.91,1.109c0.229,0.399,0.462,0.977,0.699,1.73
		c0.902-1.7,2.03-2.892,3.384-3.572c1.354-0.68,2.866-1.021,4.538-1.021c1.065,0,2.097,0.17,3.096,0.511
		c0.999,0.34,1.793,0.828,2.385,1.464c0.591,0.637,0.987,1.298,1.187,1.986c0.2,0.688,0.3,1.379,0.3,2.074
		c0,0.71-0.052,1.775-0.154,3.195c-0.103,1.421-0.22,3.584-0.353,6.491c-0.132,2.906-0.206,5.329-0.22,7.267
		c-0.785-0.029-1.4-0.044-1.844-0.044c-0.474,0-1.178,0.015-2.111,0.044c0.162-1.997,0.303-4.172,0.421-6.523l0.288-5.503
		c0.074-1.332,0.111-2.478,0.111-3.439c0-0.862-0.089-1.535-0.266-2.019c-0.178-0.483-0.463-0.918-0.854-1.305
		c-0.392-0.386-0.876-0.68-1.454-0.88c-0.577-0.201-1.235-0.302-1.975-0.302c-0.592,0-1.139,0.067-1.642,0.2
		c-0.474,0.134-0.932,0.334-1.376,0.601c-0.488,0.282-0.925,0.631-1.309,1.046c-0.385,0.4-0.71,0.854-0.977,1.357
		c-0.281,0.52-0.51,1.135-0.688,1.847c-0.222,0.89-0.377,1.979-0.466,3.271c-0.103,1.376-0.183,3.188-0.241,5.437l-0.175,6.213
		c-0.859-0.029-1.503-0.044-1.933-0.044c-0.4,0-1.074,0.015-2.022,0.044c0.147-1.834,0.266-3.721,0.354-5.658l0.266-5.37
		c0.074-1.656,0.111-3.069,0.111-4.238c0-0.754-0.074-1.394-0.222-1.919s-0.425-1.006-0.832-1.442s-0.898-0.77-1.475-0.999
		c-0.577-0.229-1.213-0.344-1.908-0.344c-0.739,0-1.442,0.13-2.107,0.389c-0.666,0.259-1.28,0.64-1.842,1.143
		s-1.035,1.12-1.42,1.853c-0.384,0.732-0.684,1.694-0.898,2.885c-0.214,1.191-0.384,3.266-0.508,6.225
		c-0.125,2.959-0.187,5.451-0.187,7.478c-0.948-0.029-1.6-0.044-1.955-0.044C383.629,384.654,382.956,384.669,381.993,384.698z"/>
	<path fill="#585858" d="M439.419,381.17c-0.177,0.813-0.355,1.85-0.532,3.106c-1.42,0.355-2.652,0.596-3.695,0.722
		c-1.043,0.125-2.082,0.188-3.118,0.188c-1.849,0-3.51-0.222-4.981-0.666c-1.472-0.443-2.733-1.217-3.783-2.318
		c-1.051-1.103-1.805-2.363-2.263-3.783c-0.459-1.421-0.688-2.922-0.688-4.505c0-2.204,0.421-4.249,1.265-6.136
		c0.843-1.886,2.111-3.368,3.806-4.448c1.694-1.08,3.842-1.62,6.446-1.62c1.346,0,2.633,0.196,3.861,0.588
		c1.228,0.393,2.248,0.987,3.062,1.786c0.813,0.799,1.442,1.786,1.886,2.963c0.444,1.176,0.666,2.459,0.666,3.85
		c0,0.532-0.044,1.051-0.133,1.553h-16.931c-0.059,0.814-0.088,1.436-0.088,1.864c0,1.554,0.325,2.984,0.976,4.294
		c0.651,1.309,1.612,2.3,2.885,2.974c1.272,0.673,2.737,1.009,4.394,1.009C434.36,382.59,436.683,382.117,439.419,381.17z
		 M424.464,370.607h13.225c-0.015-0.932-0.074-1.656-0.178-2.174s-0.296-1.055-0.577-1.609c-0.281-0.555-0.663-1.035-1.143-1.442
		c-0.481-0.406-1.058-0.717-1.73-0.932c-0.673-0.214-1.402-0.321-2.186-0.321c-0.843,0-1.646,0.118-2.407,0.354
		c-0.762,0.237-1.435,0.562-2.02,0.977s-1.08,0.898-1.486,1.453c-0.407,0.555-0.71,1.092-0.91,1.609
		S424.656,369.735,424.464,370.607z"/>
	<path fill="#585858" d="M444.102,384.276l-0.133-1.63c0-0.18-0.06-0.745-0.178-1.698c2.278,0.991,4.379,1.486,6.302,1.486
		c1.006,0,1.856-0.132,2.552-0.397s1.217-0.66,1.564-1.184s0.521-1.064,0.521-1.625c0-0.31-0.048-0.619-0.144-0.929
		c-0.097-0.31-0.241-0.608-0.433-0.896c-0.193-0.288-0.478-0.604-0.854-0.951c-0.377-0.347-1.162-1-2.352-1.962
		c-1.191-0.962-2.094-1.712-2.707-2.252c-0.614-0.54-1.14-1.095-1.576-1.665c-0.437-0.569-0.758-1.143-0.965-1.72
		c-0.207-0.576-0.311-1.161-0.311-1.753c0-0.946,0.3-1.863,0.899-2.751s1.464-1.55,2.596-1.986c1.131-0.436,2.459-0.654,3.983-0.654
		c1.701,0,3.572,0.199,5.614,0.599c0.059,1.154,0.133,2.212,0.222,3.174c-1.657-0.681-3.292-1.021-4.904-1.021
		c-0.873,0-1.683,0.115-2.43,0.345s-1.294,0.573-1.642,1.031c-0.348,0.459-0.521,0.962-0.521,1.509c0,0.355,0.059,0.696,0.178,1.021
		c0.118,0.325,0.329,0.677,0.632,1.054s0.669,0.751,1.099,1.12c0.429,0.37,1.283,1.065,2.562,2.086
		c1.28,1.021,2.156,1.775,2.63,2.264c0.473,0.488,0.88,0.991,1.22,1.509s0.588,1.032,0.743,1.542
		c0.156,0.511,0.233,1.032,0.233,1.564c0,1.036-0.308,1.997-0.921,2.885c-0.614,0.888-1.528,1.575-2.741,2.063
		s-2.574,0.732-4.083,0.732c-0.636,0-1.384-0.041-2.241-0.122c-0.858-0.082-1.587-0.178-2.186-0.288
		C445.732,384.665,444.989,384.499,444.102,384.276z"/>
	<path fill="#585858" d="M475.966,365.793c0.133-0.651,0.273-1.612,0.421-2.885c1.775-0.458,3.317-0.772,4.626-0.943
		c1.309-0.17,2.585-0.255,3.828-0.255c1.332,0,2.578,0.122,3.739,0.366c1.161,0.244,2.126,0.64,2.896,1.187
		c0.769,0.548,1.279,1.177,1.531,1.887c0.251,0.71,0.377,1.472,0.377,2.285c0,1.021-0.077,2.733-0.231,5.137
		c-0.154,2.404-0.272,4.627-0.353,6.668c-0.081,2.042-0.122,3.861-0.122,5.459c-0.8-0.029-1.451-0.044-1.955-0.044
		c-0.474,0-1.148,0.015-2.021,0.044l0.471-6.058l0.337-7.167c-0.518,0.399-0.907,0.681-1.166,0.843
		c-0.259,0.163-0.551,0.314-0.877,0.455c-0.326,0.141-0.685,0.273-1.077,0.399c-0.393,0.126-1.155,0.344-2.288,0.654
		s-1.936,0.548-2.409,0.71c-1.021,0.326-1.828,0.651-2.42,0.977s-1.088,0.681-1.488,1.065c-0.399,0.385-0.681,0.77-0.843,1.153
		c-0.193,0.474-0.289,0.97-0.289,1.487c0,0.799,0.237,1.494,0.71,2.086c0.473,0.592,1.068,1.002,1.786,1.231
		c0.717,0.229,1.579,0.344,2.585,0.344c0.622,0,1.272-0.043,1.953-0.13c0.68-0.086,1.59-0.31,2.729-0.669
		c-0.208,0.572-0.444,1.452-0.71,2.641c-1.08,0.207-1.96,0.336-2.641,0.388c-0.681,0.052-1.324,0.078-1.931,0.078
		c-2.027,0-3.609-0.237-4.749-0.71c-1.139-0.474-1.99-1.194-2.552-2.164c-0.562-0.969-0.843-2.022-0.843-3.162
		c0-0.665,0.1-1.279,0.3-1.841c0.2-0.562,0.469-1.073,0.81-1.531c0.341-0.459,0.825-0.917,1.454-1.376
		c0.628-0.458,1.287-0.836,1.975-1.132s1.491-0.588,2.408-0.876c0.917-0.289,2.39-0.677,4.417-1.165
		c0.651-0.148,1.206-0.3,1.664-0.455c0.459-0.155,0.866-0.307,1.221-0.455c0.355-0.147,0.666-0.321,0.932-0.521
		c0.267-0.199,0.511-0.443,0.733-0.732c0.222-0.288,0.384-0.58,0.488-0.876s0.155-0.592,0.155-0.888c0-0.725-0.237-1.346-0.71-1.864
		c-0.474-0.518-1.091-0.88-1.854-1.087c-0.762-0.207-1.661-0.311-2.696-0.311c-0.962,0-1.949,0.077-2.962,0.232
		c-1.014,0.155-1.887,0.341-2.619,0.555C477.975,365.042,477.061,365.364,475.966,365.793z"/>
	<path fill="#585858" d="M498.555,384.698c0.707-9.275,1.075-16.768,1.105-22.478l1.999,0.021c0.488,0,1.133-0.007,1.933-0.021
		l-0.293,4.438c0.369-0.621,0.665-1.099,0.888-1.432c0.222-0.332,0.518-0.684,0.888-1.054c0.37-0.369,0.807-0.714,1.31-1.032
		c0.503-0.317,1.095-0.584,1.775-0.799c0.681-0.214,1.373-0.373,2.075-0.477c0.703-0.104,1.402-0.155,2.098-0.155
		c1.272,0,2.501,0.155,3.685,0.466s2.156,0.817,2.919,1.521c0.762,0.702,1.272,1.49,1.531,2.362
		c0.259,0.873,0.389,1.812,0.389,2.818c0,0.192-0.008,0.562-0.022,1.109c-0.015,0.548-0.044,1.265-0.088,2.152l-0.439,9.298
		c-0.029,0.888-0.052,1.975-0.066,3.262c-0.666-0.029-1.296-0.044-1.889-0.044c-0.726,0-1.407,0.015-2.044,0.044
		c0.149-1.79,0.261-3.514,0.336-5.17l0.291-5.171c0.089-1.774,0.135-3.113,0.135-4.016c0-1.302-0.223-2.341-0.667-3.118
		c-0.444-0.776-1.155-1.375-2.133-1.797s-2.073-0.633-3.287-0.633c-1.719,0-3.192,0.407-4.421,1.221
		c-1.126,0.755-2,1.827-2.622,3.218c-0.43,0.991-0.733,2.455-0.91,4.394c-0.227,2.322-0.384,6.013-0.475,11.072
		c-0.825-0.029-1.466-0.044-1.922-0.044C500.175,384.654,499.483,384.669,498.555,384.698z"/>
	<path fill="#585858" d="M547.085,384.742c-0.873-0.029-1.479-0.044-1.82-0.044c-0.37,0-1.014,0-1.931,0l0.265-4.793
		c-0.474,0.829-0.88,1.469-1.22,1.919c-0.341,0.452-0.744,0.877-1.21,1.276s-1.006,0.758-1.619,1.076
		c-0.614,0.318-1.298,0.565-2.053,0.743c-0.754,0.178-1.553,0.267-2.396,0.267c-1.435,0-2.777-0.259-4.027-0.776
		s-2.312-1.258-3.184-2.22c-0.873-0.961-1.502-2.082-1.886-3.361c-0.385-1.279-0.577-2.614-0.577-4.005
		c0-1.864,0.362-3.698,1.087-5.503s1.749-3.296,3.073-4.472c1.323-1.176,2.821-1.993,4.492-2.452
		c1.672-0.458,3.447-0.688,5.325-0.688c1.302,0,2.848,0.147,4.637,0.443c0.074-1.612,0.111-2.951,0.111-4.016
		c0-1.539-0.008-2.781-0.022-3.729l2.021,0.022c0.503,0,1.177-0.007,2.021-0.022l-0.643,12.533l-0.443,14.356V384.742z
		 M543.887,364.949c-0.888-0.266-1.646-0.436-2.274-0.51s-1.239-0.111-1.83-0.111c-1.42,0-2.777,0.204-4.071,0.61
		c-1.295,0.407-2.434,1.076-3.417,2.008c-0.984,0.933-1.742,2.116-2.274,3.551s-0.799,2.84-0.799,4.216s0.252,2.659,0.755,3.85
		c0.502,1.191,1.283,2.123,2.34,2.796c1.058,0.674,2.289,1.01,3.694,1.01c0.844,0,1.612-0.114,2.308-0.344s1.327-0.565,1.896-1.01
		c0.569-0.443,1.106-1.043,1.609-1.797c0.503-0.755,0.902-1.628,1.197-2.619c0.252-0.872,0.437-2.048,0.555-3.527
		c0.06-0.725,0.126-2.123,0.2-4.194L543.887,364.949z"/>
	<path fill="#585858" d="M575.598,361.71c1.553,0,3.032,0.222,4.438,0.666c1.405,0.443,2.622,1.146,3.65,2.107
		c1.027,0.962,1.809,2.175,2.341,3.64c0.532,1.464,0.799,3.01,0.799,4.638c0,1.76-0.285,3.446-0.854,5.059s-1.368,2.981-2.396,4.105
		s-2.285,1.949-3.772,2.474c-1.486,0.525-3.08,0.788-4.781,0.788c-1.583,0-3.077-0.237-4.482-0.71
		c-1.405-0.474-2.622-1.213-3.65-2.219s-1.809-2.237-2.341-3.695c-0.532-1.457-0.799-2.984-0.799-4.582
		c0-2.411,0.488-4.582,1.465-6.513c0.976-1.931,2.41-3.372,4.305-4.327C571.411,362.187,573.438,361.71,575.598,361.71z
		 M575.497,364.528c-1.507,0-2.892,0.377-4.154,1.131c-1.264,0.755-2.198,1.891-2.804,3.406c-0.605,1.517-0.908,3.17-0.908,4.96
		c0,1.567,0.251,2.977,0.754,4.227c0.502,1.25,1.329,2.26,2.481,3.029s2.54,1.153,4.165,1.153c1.108,0,2.157-0.188,3.146-0.565
		c0.99-0.377,1.854-1.002,2.593-1.875s1.285-1.941,1.64-3.206c0.354-1.266,0.532-2.593,0.532-3.983c0-1.302-0.178-2.522-0.532-3.661
		s-0.897-2.053-1.629-2.74c-0.73-0.688-1.559-1.173-2.481-1.454C577.377,364.669,576.442,364.528,575.497,364.528z"/>
	<path fill="#585858" d="M591.773,384.698l0.243-4.078l0.596-15.604h-2.77c0.074-0.73,0.134-1.647,0.178-2.751h2.861
		c0.029-1.376,0.062-2.43,0.1-3.162s0.134-1.391,0.289-1.975s0.385-1.08,0.688-1.487c0.303-0.406,0.725-0.779,1.265-1.12
		c0.54-0.34,1.169-0.588,1.887-0.743s1.542-0.233,2.475-0.233c1.228,0,2.655,0.186,4.283,0.555c0.029,0.888,0.103,1.827,0.222,2.818
		c-1.405-0.488-2.686-0.732-3.839-0.732c-0.562,0-1.08,0.074-1.554,0.222c-0.474,0.148-0.854,0.345-1.143,0.588
		c-0.288,0.244-0.525,0.566-0.71,0.966s-0.311,0.873-0.377,1.42c-0.066,0.548-0.1,1.191-0.1,1.931l-0.022,0.954h6.169
		c-0.074,0.642-0.142,1.559-0.2,2.751h-5.95l-0.394,11.326l-0.197,8.356c-0.918-0.029-1.593-0.044-2.021-0.044
		C593.336,384.654,592.677,384.669,591.773,384.698z"/>
	<path fill="#585858" d="M605.176,384.698l0.243-4.078l0.596-15.604h-2.77c0.074-0.73,0.134-1.647,0.178-2.751h2.861
		c0.029-1.376,0.062-2.43,0.1-3.162s0.134-1.391,0.289-1.975s0.385-1.08,0.688-1.487c0.303-0.406,0.725-0.779,1.265-1.12
		c0.54-0.34,1.169-0.588,1.887-0.743s1.542-0.233,2.475-0.233c1.228,0,2.655,0.186,4.283,0.555c0.029,0.888,0.103,1.827,0.222,2.818
		c-1.405-0.488-2.686-0.732-3.839-0.732c-0.562,0-1.08,0.074-1.554,0.222c-0.474,0.148-0.854,0.345-1.143,0.588
		c-0.288,0.244-0.525,0.566-0.71,0.966s-0.311,0.873-0.377,1.42c-0.066,0.548-0.1,1.191-0.1,1.931l-0.022,0.954h6.169
		c-0.074,0.642-0.142,1.559-0.2,2.751h-5.95l-0.394,11.326l-0.197,8.356c-0.918-0.029-1.593-0.044-2.021-0.044
		C606.738,384.654,606.079,384.669,605.176,384.698z"/>
	<path fill="#585858" d="M618.09,384.698l0.385-5.592l0.43-9.541l0.182-7.345l2.043,0.021l1.998-0.021
		c-0.166,2.308-0.316,4.723-0.453,7.244c-0.136,2.522-0.245,5.278-0.328,8.266c-0.083,2.988-0.124,5.312-0.124,6.968
		c-0.934-0.029-1.6-0.044-1.999-0.044C619.852,384.654,619.142,384.669,618.09,384.698z M619.11,357.383
		c0.045-1.391,0.067-2.44,0.067-3.15c0.812,0.029,1.53,0.044,2.152,0.044c0.783,0,1.493-0.015,2.13-0.044
		c-0.03,0.458-0.074,1.509-0.133,3.15c-0.799-0.015-1.487-0.022-2.064-0.022C620.687,357.36,619.969,357.368,619.11,357.383z"/>
	<path fill="#585858" d="M644.74,381.325c-0.03,0.237-0.107,0.677-0.233,1.32s-0.233,1.276-0.321,1.897
		c-1.08,0.251-2.119,0.422-3.118,0.511c-0.998,0.088-1.875,0.133-2.63,0.133c-1.598,0-3.073-0.215-4.427-0.644
		s-2.533-1.135-3.539-2.119c-1.006-0.983-1.745-2.204-2.219-3.661s-0.71-2.992-0.71-4.604c0-2.175,0.385-4.238,1.153-6.19
		c0.77-1.953,1.982-3.484,3.64-4.594c1.656-1.109,3.912-1.664,6.768-1.664c2.101,0,4.149,0.281,6.146,0.843
		c0.089,1.258,0.17,2.294,0.244,3.106c-1.405-0.443-2.552-0.743-3.439-0.898s-1.708-0.232-2.463-0.232
		c-1.302,0-2.467,0.236-3.495,0.71s-1.904,1.146-2.629,2.019c-0.726,0.873-1.247,1.909-1.564,3.107
		c-0.318,1.198-0.478,2.418-0.478,3.661c0,1.672,0.259,3.136,0.777,4.394c0.518,1.257,1.423,2.229,2.718,2.918
		c1.294,0.688,2.748,1.031,4.36,1.031C640.849,382.368,642.669,382.021,644.74,381.325z"/>
	<path fill="#585858" d="M668.061,381.17c-0.178,0.813-0.354,1.85-0.532,3.106c-1.42,0.355-2.651,0.596-3.694,0.722
		c-1.043,0.125-2.083,0.188-3.118,0.188c-1.85,0-3.51-0.222-4.981-0.666c-1.472-0.443-2.733-1.217-3.783-2.318
		c-1.051-1.103-1.805-2.363-2.264-3.783c-0.458-1.421-0.688-2.922-0.688-4.505c0-2.204,0.422-4.249,1.265-6.136
		c0.844-1.886,2.111-3.368,3.806-4.448c1.693-1.08,3.842-1.62,6.446-1.62c1.346,0,2.633,0.196,3.86,0.588
		c1.229,0.393,2.249,0.987,3.062,1.786s1.442,1.786,1.886,2.963c0.444,1.176,0.666,2.459,0.666,3.85
		c0,0.532-0.044,1.051-0.133,1.553h-16.931c-0.06,0.814-0.089,1.436-0.089,1.864c0,1.554,0.325,2.984,0.977,4.294
		c0.65,1.309,1.612,2.3,2.885,2.974c1.271,0.673,2.736,1.009,4.393,1.009C663.002,382.59,665.324,382.117,668.061,381.17z
		 M653.105,370.607h13.225c-0.015-0.932-0.074-1.656-0.178-2.174s-0.296-1.055-0.577-1.609s-0.662-1.035-1.143-1.442
		c-0.48-0.406-1.058-0.717-1.73-0.932c-0.674-0.214-1.402-0.321-2.186-0.321c-0.844,0-1.646,0.118-2.408,0.354
		c-0.762,0.237-1.435,0.562-2.019,0.977c-0.585,0.414-1.08,0.898-1.487,1.453s-0.71,1.092-0.909,1.609
		C653.493,369.04,653.297,369.735,653.105,370.607z"/>
	<path fill="#585858" d="M703.542,381.17c-0.178,0.813-0.354,1.85-0.532,3.106c-1.42,0.355-2.651,0.596-3.694,0.722
		c-1.043,0.125-2.083,0.188-3.118,0.188c-1.85,0-3.51-0.222-4.981-0.666c-1.472-0.443-2.733-1.217-3.783-2.318
		c-1.051-1.103-1.805-2.363-2.264-3.783c-0.458-1.421-0.688-2.922-0.688-4.505c0-2.204,0.422-4.249,1.265-6.136
		c0.844-1.886,2.111-3.368,3.806-4.448c1.693-1.08,3.842-1.62,6.446-1.62c1.346,0,2.633,0.196,3.86,0.588
		c1.229,0.393,2.249,0.987,3.062,1.786s1.442,1.786,1.886,2.963c0.444,1.176,0.666,2.459,0.666,3.85
		c0,0.532-0.044,1.051-0.133,1.553h-16.931c-0.06,0.814-0.089,1.436-0.089,1.864c0,1.554,0.325,2.984,0.977,4.294
		c0.65,1.309,1.612,2.3,2.885,2.974c1.271,0.673,2.736,1.009,4.393,1.009C698.483,382.59,700.806,382.117,703.542,381.17z
		 M688.587,370.607h13.225c-0.015-0.932-0.074-1.656-0.178-2.174s-0.296-1.055-0.577-1.609s-0.662-1.035-1.143-1.442
		c-0.48-0.406-1.058-0.717-1.73-0.932c-0.674-0.214-1.402-0.321-2.186-0.321c-0.844,0-1.646,0.118-2.408,0.354
		c-0.762,0.237-1.435,0.562-2.019,0.977c-0.585,0.414-1.08,0.898-1.487,1.453s-0.71,1.092-0.909,1.609
		C688.975,369.04,688.778,369.735,688.587,370.607z"/>
	<path fill="#585858" d="M709.134,384.698c0.708-9.275,1.076-16.768,1.105-22.478l1.999,0.021c0.488,0,1.133-0.007,1.933-0.021
		l-0.293,4.438c0.369-0.621,0.665-1.099,0.888-1.432c0.222-0.332,0.518-0.684,0.888-1.054c0.37-0.369,0.807-0.714,1.31-1.032
		c0.503-0.317,1.095-0.584,1.775-0.799c0.681-0.214,1.373-0.373,2.075-0.477c0.703-0.104,1.402-0.155,2.098-0.155
		c1.272,0,2.501,0.155,3.685,0.466s2.156,0.817,2.919,1.521c0.762,0.702,1.272,1.49,1.531,2.362
		c0.259,0.873,0.389,1.812,0.389,2.818c0,0.192-0.008,0.562-0.022,1.109c-0.015,0.548-0.044,1.265-0.088,2.152l-0.439,9.298
		c-0.029,0.888-0.052,1.975-0.066,3.262c-0.666-0.029-1.296-0.044-1.889-0.044c-0.726,0-1.407,0.015-2.044,0.044
		c0.149-1.79,0.261-3.514,0.336-5.17l0.291-5.171c0.089-1.774,0.135-3.113,0.135-4.016c0-1.302-0.223-2.341-0.667-3.118
		c-0.444-0.776-1.155-1.375-2.133-1.797s-2.073-0.633-3.287-0.633c-1.719,0-3.192,0.407-4.421,1.221
		c-1.126,0.755-2,1.827-2.622,3.218c-0.43,0.991-0.733,2.455-0.91,4.394c-0.227,2.322-0.384,6.013-0.475,11.072
		c-0.825-0.029-1.466-0.044-1.922-0.044C710.754,384.654,710.062,384.669,709.134,384.698z"/>
	<path fill="#585858" d="M742.671,384.698l-0.755-2.241c-0.252-0.725-0.844-2.374-1.777-4.948l-5.575-15.288
		c0.902,0.015,1.612,0.021,2.131,0.021c0.562,0,1.228-0.007,1.997-0.021l0.467,1.553c0.133,0.443,0.363,1.154,0.688,2.13
		l5.224,15.467l7.036-16.953l0.841-2.196c0.875,0.015,1.572,0.021,2.091,0.021c0.52,0,1.217-0.007,2.092-0.021l-2.882,6.19
		l-5.786,12.914l-1.419,3.373c-0.917-0.029-1.635-0.044-2.152-0.044C744.358,384.654,743.618,384.669,742.671,384.698z"/>
	<path fill="#585858" d="M759.149,384.698l0.385-5.592l0.43-9.541l0.182-7.345l2.043,0.021l1.998-0.021
		c-0.166,2.308-0.316,4.723-0.453,7.244c-0.136,2.522-0.245,5.278-0.328,8.266c-0.083,2.988-0.124,5.312-0.124,6.968
		c-0.934-0.029-1.6-0.044-1.999-0.044C760.911,384.654,760.201,384.669,759.149,384.698z M760.17,357.383
		c0.045-1.391,0.067-2.44,0.067-3.15c0.812,0.029,1.53,0.044,2.152,0.044c0.783,0,1.493-0.015,2.13-0.044
		c-0.03,0.458-0.074,1.509-0.133,3.15c-0.799-0.015-1.487-0.022-2.064-0.022C761.746,357.36,761.028,357.368,760.17,357.383z"/>
	<path fill="#585858" d="M769.2,384.698c0.532-8.535,0.798-15.348,0.798-20.437l-0.021-2.041c0.754,0.015,1.376,0.021,1.864,0.021
		c0.562,0,1.191-0.007,1.887-0.021l-0.177,3.683c0.547-0.917,1.031-1.608,1.453-2.074s0.898-0.851,1.431-1.154
		c0.533-0.303,1.136-0.539,1.809-0.71c0.673-0.17,1.372-0.255,2.097-0.255c0.621,0,1.235,0.074,1.842,0.222
		c0.015,0.977,0.066,2.071,0.155,3.284c-0.917-0.251-1.738-0.377-2.463-0.377c-0.872,0-1.656,0.144-2.352,0.433
		c-0.695,0.288-1.319,0.725-1.874,1.309c-0.555,0.585-1.01,1.284-1.364,2.098c-0.296,0.65-0.521,1.494-0.677,2.529
		s-0.277,2.922-0.366,5.658c-0.059,1.997-0.089,4.112-0.089,6.347v1.486c-0.799-0.029-1.443-0.044-1.931-0.044
		C770.776,384.654,770.104,384.669,769.2,384.698z"/>
	<path fill="#585858" d="M796.339,361.71c1.553,0,3.032,0.222,4.438,0.666c1.405,0.443,2.622,1.146,3.65,2.107
		c1.027,0.962,1.809,2.175,2.341,3.64c0.532,1.464,0.799,3.01,0.799,4.638c0,1.76-0.285,3.446-0.854,5.059s-1.368,2.981-2.396,4.105
		s-2.285,1.949-3.772,2.474c-1.486,0.525-3.08,0.788-4.781,0.788c-1.583,0-3.077-0.237-4.482-0.71
		c-1.405-0.474-2.622-1.213-3.65-2.219s-1.809-2.237-2.341-3.695c-0.532-1.457-0.799-2.984-0.799-4.582
		c0-2.411,0.488-4.582,1.465-6.513c0.976-1.931,2.41-3.372,4.305-4.327C792.152,362.187,794.179,361.71,796.339,361.71z
		 M796.238,364.528c-1.507,0-2.892,0.377-4.154,1.131c-1.264,0.755-2.198,1.891-2.804,3.406c-0.605,1.517-0.908,3.17-0.908,4.96
		c0,1.567,0.251,2.977,0.754,4.227c0.502,1.25,1.329,2.26,2.481,3.029s2.54,1.153,4.165,1.153c1.108,0,2.157-0.188,3.146-0.565
		c0.99-0.377,1.854-1.002,2.593-1.875s1.285-1.941,1.64-3.206c0.354-1.266,0.532-2.593,0.532-3.983c0-1.302-0.178-2.522-0.532-3.661
		s-0.897-2.053-1.629-2.74c-0.73-0.688-1.559-1.173-2.481-1.454C798.118,364.669,797.184,364.528,796.238,364.528z"/>
	<path fill="#585858" d="M811.782,384.698c0.708-9.275,1.076-16.768,1.105-22.478l1.999,0.021c0.488,0,1.133-0.007,1.933-0.021
		l-0.293,4.438c0.369-0.621,0.665-1.099,0.888-1.432c0.222-0.332,0.518-0.684,0.888-1.054c0.37-0.369,0.807-0.714,1.31-1.032
		c0.503-0.317,1.095-0.584,1.775-0.799c0.681-0.214,1.373-0.373,2.075-0.477c0.703-0.104,1.402-0.155,2.098-0.155
		c1.272,0,2.501,0.155,3.685,0.466s2.156,0.817,2.919,1.521c0.762,0.702,1.272,1.49,1.531,2.362
		c0.259,0.873,0.389,1.812,0.389,2.818c0,0.192-0.008,0.562-0.022,1.109c-0.015,0.548-0.044,1.265-0.088,2.152l-0.439,9.298
		c-0.029,0.888-0.052,1.975-0.066,3.262c-0.666-0.029-1.296-0.044-1.889-0.044c-0.726,0-1.407,0.015-2.044,0.044
		c0.149-1.79,0.261-3.514,0.336-5.17l0.291-5.171c0.089-1.774,0.135-3.113,0.135-4.016c0-1.302-0.223-2.341-0.667-3.118
		c-0.444-0.776-1.155-1.375-2.133-1.797s-2.073-0.633-3.287-0.633c-1.719,0-3.192,0.407-4.421,1.221
		c-1.126,0.755-2,1.827-2.622,3.218c-0.43,0.991-0.733,2.455-0.91,4.394c-0.227,2.322-0.384,6.013-0.475,11.072
		c-0.825-0.029-1.466-0.044-1.922-0.044C813.402,384.654,812.71,384.669,811.782,384.698z"/>
	<path fill="#585858" d="M839.275,384.698l0.244-3.218c0.044-0.68,0.103-1.753,0.177-3.217l0.531-13.514
		c0.015-1.109,0.022-1.953,0.022-2.529c0.695,0.015,1.332,0.021,1.909,0.021c0.622,0,1.236-0.007,1.843-0.021l-0.198,4.127
		c0.502-0.828,0.957-1.487,1.364-1.975c0.406-0.488,0.942-0.939,1.608-1.354c0.666-0.413,1.424-0.735,2.274-0.965
		s1.734-0.344,2.651-0.344c0.636,0,1.265,0.074,1.886,0.222c0.621,0.148,1.194,0.355,1.72,0.621c0.524,0.267,0.977,0.57,1.354,0.91
		c0.377,0.341,0.681,0.71,0.91,1.109c0.229,0.399,0.462,0.977,0.698,1.73c0.902-1.7,2.03-2.892,3.384-3.572
		c1.354-0.68,2.866-1.021,4.538-1.021c1.065,0,2.097,0.17,3.096,0.511c0.998,0.34,1.793,0.828,2.385,1.464
		c0.592,0.637,0.988,1.298,1.188,1.986c0.2,0.688,0.3,1.379,0.3,2.074c0,0.71-0.052,1.775-0.154,3.195
		c-0.103,1.421-0.221,3.584-0.353,6.491c-0.132,2.906-0.205,5.329-0.22,7.267c-0.785-0.029-1.4-0.044-1.845-0.044
		c-0.474,0-1.178,0.015-2.111,0.044c0.163-1.997,0.303-4.172,0.422-6.523l0.288-5.503c0.073-1.332,0.11-2.478,0.11-3.439
		c0-0.862-0.088-1.535-0.266-2.019s-0.463-0.918-0.854-1.305c-0.393-0.386-0.877-0.68-1.453-0.88
		c-0.577-0.201-1.235-0.302-1.976-0.302c-0.592,0-1.139,0.067-1.642,0.2c-0.474,0.134-0.932,0.334-1.375,0.601
		c-0.488,0.282-0.925,0.631-1.31,1.046c-0.385,0.4-0.71,0.854-0.977,1.357c-0.281,0.52-0.51,1.135-0.688,1.847
		c-0.222,0.89-0.377,1.979-0.466,3.271c-0.103,1.376-0.184,3.188-0.241,5.437l-0.176,6.213c-0.859-0.029-1.504-0.044-1.933-0.044
		c-0.4,0-1.074,0.015-2.021,0.044c0.147-1.834,0.266-3.721,0.354-5.658l0.266-5.37c0.073-1.656,0.11-3.069,0.11-4.238
		c0-0.754-0.074-1.394-0.222-1.919c-0.148-0.525-0.426-1.006-0.832-1.442c-0.407-0.437-0.898-0.77-1.476-0.999
		c-0.577-0.229-1.213-0.344-1.908-0.344c-0.739,0-1.441,0.13-2.107,0.389s-1.28,0.64-1.842,1.143
		c-0.562,0.503-1.035,1.12-1.42,1.853s-0.684,1.694-0.898,2.885c-0.215,1.191-0.384,3.266-0.509,6.225
		c-0.124,2.959-0.187,5.451-0.187,7.478c-0.948-0.029-1.6-0.044-1.954-0.044C840.912,384.654,840.238,384.669,839.275,384.698z"/>
	<path fill="#585858" d="M896.702,381.17c-0.178,0.813-0.354,1.85-0.532,3.106c-1.42,0.355-2.651,0.596-3.694,0.722
		c-1.043,0.125-2.083,0.188-3.118,0.188c-1.85,0-3.51-0.222-4.981-0.666c-1.472-0.443-2.733-1.217-3.783-2.318
		c-1.051-1.103-1.805-2.363-2.264-3.783c-0.458-1.421-0.688-2.922-0.688-4.505c0-2.204,0.422-4.249,1.265-6.136
		c0.844-1.886,2.111-3.368,3.806-4.448c1.693-1.08,3.842-1.62,6.446-1.62c1.346,0,2.633,0.196,3.86,0.588
		c1.229,0.393,2.249,0.987,3.062,1.786s1.442,1.786,1.886,2.963c0.444,1.176,0.666,2.459,0.666,3.85
		c0,0.532-0.044,1.051-0.133,1.553h-16.931c-0.06,0.814-0.089,1.436-0.089,1.864c0,1.554,0.325,2.984,0.977,4.294
		c0.65,1.309,1.612,2.3,2.885,2.974c1.271,0.673,2.736,1.009,4.393,1.009C891.644,382.59,893.966,382.117,896.702,381.17z
		 M881.747,370.607h13.225c-0.015-0.932-0.074-1.656-0.178-2.174s-0.296-1.055-0.577-1.609s-0.662-1.035-1.143-1.442
		c-0.48-0.406-1.058-0.717-1.73-0.932c-0.674-0.214-1.402-0.321-2.186-0.321c-0.844,0-1.646,0.118-2.408,0.354
		c-0.762,0.237-1.435,0.562-2.019,0.977c-0.585,0.414-1.08,0.898-1.487,1.453s-0.71,1.092-0.909,1.609
		C882.135,369.04,881.938,369.735,881.747,370.607z"/>
	<path fill="#585858" d="M902.294,384.698c0.708-9.275,1.076-16.768,1.105-22.478l1.999,0.021c0.488,0,1.133-0.007,1.933-0.021
		l-0.293,4.438c0.369-0.621,0.665-1.099,0.888-1.432c0.222-0.332,0.518-0.684,0.888-1.054c0.37-0.369,0.807-0.714,1.31-1.032
		c0.503-0.317,1.095-0.584,1.775-0.799c0.681-0.214,1.373-0.373,2.075-0.477c0.703-0.104,1.402-0.155,2.098-0.155
		c1.272,0,2.501,0.155,3.685,0.466s2.156,0.817,2.919,1.521c0.762,0.702,1.272,1.49,1.531,2.362
		c0.259,0.873,0.389,1.812,0.389,2.818c0,0.192-0.008,0.562-0.022,1.109c-0.015,0.548-0.044,1.265-0.088,2.152l-0.439,9.298
		c-0.029,0.888-0.052,1.975-0.066,3.262c-0.666-0.029-1.296-0.044-1.889-0.044c-0.726,0-1.407,0.015-2.044,0.044
		c0.149-1.79,0.261-3.514,0.336-5.17l0.291-5.171c0.089-1.774,0.135-3.113,0.135-4.016c0-1.302-0.223-2.341-0.667-3.118
		c-0.444-0.776-1.155-1.375-2.133-1.797s-2.073-0.633-3.287-0.633c-1.719,0-3.192,0.407-4.421,1.221
		c-1.126,0.755-2,1.827-2.622,3.218c-0.43,0.991-0.733,2.455-0.91,4.394c-0.227,2.322-0.384,6.013-0.475,11.072
		c-0.825-0.029-1.466-0.044-1.922-0.044C903.914,384.654,903.222,384.669,902.294,384.698z"/>
	<path fill="#585858" d="M941.171,381.77c-0.163,0.725-0.341,1.687-0.533,2.885c-1.006,0.236-1.805,0.384-2.396,0.443
		c-0.592,0.059-1.153,0.089-1.687,0.089c-1.316,0-2.378-0.167-3.184-0.499c-0.807-0.333-1.424-0.866-1.854-1.598
		c-0.429-0.732-0.643-1.728-0.643-2.984c0-0.163,0.007-0.451,0.022-0.866c0.015-0.414,0.09-1.855,0.226-4.326l0.542-9.941H928.7
		c0.059-0.621,0.111-1.509,0.155-2.663h3.024c0.075-0.828,0.149-2.241,0.224-4.238c1.388-0.266,2.561-0.518,3.52-0.754
		c-0.103,2.189-0.161,3.854-0.176,4.992h6.167c-0.074,0.933-0.118,1.82-0.133,2.663h-6.144l-0.593,12.493l-0.021,0.954
		c0,1.08,0.122,1.89,0.365,2.43c0.244,0.54,0.609,0.928,1.097,1.165c0.487,0.236,0.997,0.354,1.529,0.354
		c0.369,0,0.768-0.029,1.196-0.089C939.339,382.221,940.092,382.051,941.171,381.77z"/>
	<path fill="#585858" d="M943.39,384.276l-0.134-1.63c0-0.18-0.059-0.745-0.177-1.698c2.277,0.991,4.378,1.486,6.302,1.486
		c1.006,0,1.855-0.132,2.552-0.397c0.695-0.266,1.216-0.66,1.564-1.184c0.347-0.523,0.521-1.064,0.521-1.625
		c0-0.31-0.049-0.619-0.145-0.929c-0.097-0.31-0.241-0.608-0.433-0.896c-0.192-0.288-0.478-0.604-0.854-0.951s-1.161-1-2.353-1.962
		c-1.19-0.962-2.093-1.712-2.707-2.252c-0.613-0.54-1.139-1.095-1.575-1.665c-0.437-0.569-0.758-1.143-0.965-1.72
		c-0.208-0.576-0.311-1.161-0.311-1.753c0-0.946,0.299-1.863,0.898-2.751c0.599-0.888,1.464-1.55,2.596-1.986
		c1.132-0.436,2.46-0.654,3.983-0.654c1.701,0,3.572,0.199,5.614,0.599c0.059,1.154,0.133,2.212,0.222,3.174
		c-1.657-0.681-3.292-1.021-4.904-1.021c-0.873,0-1.683,0.115-2.43,0.345s-1.295,0.573-1.642,1.031
		c-0.348,0.459-0.521,0.962-0.521,1.509c0,0.355,0.059,0.696,0.178,1.021c0.118,0.325,0.328,0.677,0.632,1.054
		c0.303,0.377,0.669,0.751,1.099,1.12c0.429,0.37,1.283,1.065,2.562,2.086s2.156,1.775,2.63,2.264
		c0.473,0.488,0.88,0.991,1.221,1.509c0.34,0.518,0.588,1.032,0.743,1.542c0.155,0.511,0.232,1.032,0.232,1.564
		c0,1.036-0.307,1.997-0.921,2.885c-0.613,0.888-1.527,1.575-2.74,2.063s-2.574,0.732-4.083,0.732c-0.636,0-1.383-0.041-2.241-0.122
		c-0.857-0.082-1.586-0.178-2.186-0.288C945.021,384.665,944.277,384.499,943.39,384.276z"/>
	<path fill="#585858" d="M968.752,354.409c-0.443,0.755-0.925,1.546-1.442,2.375c-0.518,0.828-0.939,1.523-1.265,2.085l-1.709,2.974
		c-0.532-0.029-0.895-0.044-1.087-0.044c-0.252,0-0.606,0.015-1.065,0.044c1.065-3.032,1.887-5.51,2.463-7.434
		c0.844,0.016,1.494,0.022,1.953,0.022C967.161,354.432,967.879,354.425,968.752,354.409z M975.586,354.409
		c-0.443,0.755-0.925,1.546-1.442,2.375c-0.518,0.828-0.939,1.523-1.265,2.085l-1.708,2.974c-0.533-0.029-0.896-0.044-1.088-0.044
		c-0.251,0-0.606,0.015-1.064,0.044c1.139-3.239,1.96-5.717,2.463-7.434c0.843,0.016,1.494,0.022,1.952,0.022
		C973.996,354.432,974.713,354.425,975.586,354.409z"/>
</g>
</svg>
