<?xml version="1.0" encoding="utf-8"?>
<!-- Generator: Adobe Illustrator 15.0.0, SVG Export Plug-In . SVG Version: 6.00 Build 0)  -->
<!DOCTYPE svg PUBLIC "-//W3C//DTD SVG 1.1//EN" "http://www.w3.org/Graphics/SVG/1.1/DTD/svg11.dtd">
<svg version="1.1" id="Layer_1" xmlns="http://www.w3.org/2000/svg" xmlns:xlink="http://www.w3.org/1999/xlink" x="0px" y="0px"
	 width="72px" height="72px" viewBox="14 14 72 72" enable-background="new 14 14 72 72" xml:space="preserve">
<g>
	<path fill="#263B79" d="M80.667,14H19.315C16.381,14,14,16.325,14,19.188v61.617C14,83.672,16.381,86,19.315,86h61.352
		C83.604,86,86,83.672,86,80.805V19.188C86,16.325,83.604,14,80.667,14z M35.354,75.354H24.67V40.995h10.684V75.354z M30.012,36.297
		c-3.423,0-6.19-2.774-6.19-6.194c0-3.415,2.767-6.189,6.19-6.189c3.415,0,6.189,2.774,6.189,6.189
		C36.201,33.523,33.427,36.297,30.012,36.297z M75.35,75.354H64.684V58.646c0-3.986-0.078-9.111-5.552-9.111
		c-5.558,0-6.405,4.341-6.405,8.822v16.998H42.052v-34.36h10.245v4.692h0.146c1.426-2.7,4.91-5.549,10.104-5.549
		c10.808,0,12.804,7.114,12.804,16.369v18.847H75.35z"/>
</g>
</svg>
